<svg width="112" height="70" viewBox="0 0 112 70" fill="none" xmlns="http://www.w3.org/2000/svg">
<g clip-path="url(#clip0_2869_17607)">
<path d="M111.975 58.3524C111.759 57.7443 111.543 57.1345 111.326 56.5264C111.217 56.2145 110.924 56.006 110.598 56.006H48.9494C50.7357 54.371 52.4679 52.7396 54.1531 51.1186C58.1422 51.3237 62.0215 51.4411 65.7788 51.4814C65.7823 51.4814 65.7875 51.4814 65.791 51.4814C65.7945 51.4814 65.798 51.4814 65.8015 51.4814C71.108 51.5427 79.5985 49.9218 85.8741 44.6787C97.9563 34.5834 96.5569 18.8157 96.4157 17.4751C95.1505 17.3384 79.2047 15.8787 69.198 28.203C68.6961 28.8199 68.2378 29.4437 67.8091 30.0711C68.006 29.0915 68.1489 28.0926 68.2291 27.0798C69.4751 11.3331 57.2691 1.33412 56.2165 0.5C55.4881 1.10456 48.5887 7.03455 45.8195 16.5201C42.456 14.4085 39.4621 13.5779 38.6116 13.3553C38.1236 14.1299 36.1945 17.2876 35.222 21.8104C26.2697 16.9196 16.4791 17.433 15.8831 17.4734C15.7437 20.193 15.8448 24.3023 17.2389 29.0056C18.1382 32.0355 20.4473 39.4479 27.4704 44.7856C27.9305 45.1343 29.2079 46.0806 31.1075 47.0917C30.7119 46.9918 30.3111 46.899 29.8998 46.8166C13.1244 43.4346 0.54547 57.8372 0 58.4821C1.83857 60.4815 4.83604 63.2765 9.15971 65.5563C11.9446 67.0248 18.8353 70.5348 27.5384 69.2047C28.6607 69.033 33.6484 68.1954 38.5698 64.9202C39.0316 64.6136 39.5596 64.2175 40.1957 63.6988C40.783 63.2222 41.461 62.6422 42.2661 61.9325C43.4076 60.9511 44.5543 59.9505 45.7045 58.9272H111.572C111.868 58.9324 112.074 58.6345 111.975 58.3524ZM35.757 25.55C36.3984 26.0249 37.0362 26.5418 37.6653 27.1043C45.0631 33.7195 46.5079 42.3183 46.7902 46.0911C43.0991 43.8726 38.6552 39.9912 36.6632 33.5653C35.7762 30.7002 35.5793 27.9823 35.757 25.55ZM47.7382 23.328C47.7713 22.0488 47.8968 20.8291 48.0885 19.6638C50.4795 21.6597 52.8182 24.4302 54.3605 28.2381C56.5999 33.7668 56.1207 38.9152 55.089 42.6705C52.3442 39.6162 47.4925 32.8626 47.7382 23.328ZM54.0155 45.7827C53.6129 46.743 53.226 47.4983 52.9472 48.0047C52.0967 47.9714 51.2463 47.9399 50.3959 47.9066C50.1153 47.7909 49.8155 47.6612 49.4984 47.5175C49.5576 45.4585 49.4513 42.25 48.4806 38.6261C50.4098 42.0327 52.63 44.4422 54.0155 45.7827ZM74.2414 27.3058C82.251 19.8531 91.8795 20.0055 93.7755 20.0756C93.8348 22.1083 93.8871 31.5027 86.7489 39.4444C78.4971 48.6233 67.2287 48.5304 65.5575 48.4884C65.4982 46.8306 65.2891 35.6366 74.2414 27.3058ZM62.6506 48.3745C60.826 48.3044 59.0014 48.2343 57.1768 48.1659C57.8059 47.5421 58.4315 46.9182 59.0467 46.2962C59.0502 46.2926 59.0519 46.2909 59.0554 46.2874C59.0571 46.2856 59.0606 46.2821 59.0624 46.2804C60.4112 44.9206 61.8926 43.1104 63.2658 40.9707C62.5984 44.2932 62.6018 47.0076 62.6506 48.3745ZM56.2252 4.215C57.7135 5.59236 64.4404 12.1111 65.1113 22.7953C65.8868 35.1441 57.9558 43.1927 56.7585 44.3668C56.6365 44.2564 56.4466 44.0794 56.2043 43.8411C57.4556 39.0502 57.9714 32.3474 54.4146 25.6586C52.7328 22.4974 50.5527 20.1124 48.3429 18.325C50.0961 10.2904 55.075 5.31899 56.2252 4.215ZM39.1222 14.9482C39.6381 15.0779 42.3602 15.8121 45.4831 17.7748C44.7582 20.7415 44.4532 24.0272 44.8558 27.5845C45.0283 29.1038 45.3158 30.5354 45.6853 31.8848C45.4866 31.543 45.2792 31.1996 45.0597 30.8579C42.6146 27.0623 39.4952 24.3338 36.2119 22.3747C37.0623 18.3933 38.7092 15.6211 39.1222 14.9482ZM25.5761 38.6734C18.8754 31.1523 18.6471 22.3642 18.654 20.165C20.4717 20.1194 27.7249 20.1159 34.7585 24.842C34.5162 27.4828 34.6731 30.4391 35.5723 33.5653C37.6601 40.8253 42.6652 45.229 46.8599 47.7506C46.8599 47.7576 46.8599 47.7646 46.8599 47.7699C45.1782 47.8137 33.8035 47.9083 25.5761 38.6734ZM38.2212 49.7395C38.7615 49.8569 39.4133 49.9603 40.2254 50.0585C40.9747 50.1478 41.8618 50.232 42.9283 50.3178C45.0631 50.5123 47.2346 50.6876 49.4443 50.84C49.6151 50.8523 49.7842 50.8611 49.9549 50.8733C48.3377 52.4189 46.7205 53.9645 45.1032 55.5118C43.6533 53.9732 41.0671 51.5305 37.3865 49.545C37.6618 49.6116 37.9389 49.6782 38.2212 49.7395ZM21.8641 66.3028C11.8296 65.877 5.41287 59.9067 3.8514 58.3682C5.25952 56.8418 11.6291 50.2723 22.0628 49.5222C34.0213 48.6636 41.9576 56.1234 43.1984 57.3308C42.0552 58.5697 34.1816 66.825 21.8641 66.3028Z" fill="url(#paint0_linear_2869_17607)"/>
</g>
<defs>
<linearGradient id="paint0_linear_2869_17607" x1="12.7767" y1="3.73437" x2="61.9794" y2="90.2237" gradientUnits="userSpaceOnUse">
<stop stop-color="#DFB721"/>
<stop offset="1" stop-color="#8B6827"/>
</linearGradient>
<clipPath id="clip0_2869_17607">
<rect width="112" height="70" fill="white"/>
</clipPath>
</defs>
</svg>
